HIERARCHY
ROOT Hips
{
	OFFSET -3.958830 18.904000 13.208200
	CHANNELS 6 Xposition Yposition Zposition Zrotation Yrotation Xrotation 
	JOINT LHipJoint
	{
		OFFSET 0.000000 0.000000 0.000000
		CHANNELS 3 Zrotation Yrotation Xrotation
		JOINT LeftUpLeg
		{
			OFFSET 1.800000 -1.400000 0.085000
			CHANNELS 3 Zrotation Yrotation Xrotation
			JOINT LeftLeg
			{
				OFFSET 2.215000 -6.000000 0.000000
				CHANNELS 3 Zrotation Yrotation Xrotation
				JOINT LeftFoot
				{
					OFFSET 2.500000 -6.900000 0.000000
					CHANNELS 3 Zrotation Yrotation Xrotation
					JOINT LeftToeBase
					{
						OFFSET 0.200000 -0.500000 1.950000
						CHANNELS 3 Zrotation Yrotation Xrotation
						End Site
						{
							OFFSET 0.000000 0.000000 0.000000
						}
					}
				}
			}
		}
	}
	JOINT RHipJoint
	{
		OFFSET 0.000000 0.000000 0.000000
		CHANNELS 3 Zrotation Yrotation Xrotation
		JOINT RightUpLeg
		{
			OFFSET -1.800000 -1.400000 0.085000
			CHANNELS 3 Zrotation Yrotation Xrotation
			JOINT RightLeg
			{
				OFFSET -2.215000 -6.000000 0.000000
				CHANNELS 3 Zrotation Yrotation Xrotation
				JOINT RightFoot
				{
					OFFSET -2.500000 -6.900000 0.000000
					CHANNELS 3 Zrotation Yrotation Xrotation
					JOINT RightToeBase
					{
						OFFSET -0.200000 -0.500000 1.950000
						CHANNELS 3 Zrotation Yrotation Xrotation
						End Site
						{
							OFFSET 0.000000 0.000000 0.000000
						}
					}
				}
			}
		}
	}
	JOINT LowerBack
	{
		OFFSET 0.000000 0.000000 0.000000
		CHANNELS 3 Zrotation Yrotation Xrotation
		JOINT Spine
		{
			OFFSET -0.087000 1.940000 -0.288900
			CHANNELS 3 Zrotation Yrotation Xrotation
			JOINT Spine1
			{
				OFFSET 0.000000 1.950000 0.060000
				CHANNELS 3 Zrotation Yrotation Xrotation
				JOINT Neck
				{
					OFFSET 0.000000 0.000000 0.000000
					CHANNELS 3 Zrotation Yrotation Xrotation
					JOINT Neck1
					{
						OFFSET 0.000000 1.600000 0.340000
						CHANNELS 3 Zrotation Yrotation Xrotation
						JOINT Head
						{
							OFFSET 0.000000 1.667000 -0.240000
							CHANNELS 3 Zrotation Yrotation Xrotation
							End Site
							{
								OFFSET 0.000000 0.000000 0.000000
							}
						}
					}
				}
				JOINT LeftShoulder
				{
					OFFSET 0.000000 0.000000 0.000000
					CHANNELS 3 Zrotation Yrotation Xrotation
					JOINT LeftArm
					{
						OFFSET 2.700000 1.550000 -0.730000
						CHANNELS 3 Zrotation Yrotation Xrotation
						JOINT LeftForeArm
						{
							OFFSET 5.450000 0.000000 0.000000
							CHANNELS 3 Zrotation Yrotation Xrotation
							JOINT LeftHand
							{
								OFFSET 3.450000 0.000000 0.000000
								CHANNELS 3 Zrotation Yrotation Xrotation
								JOINT LeftHandIndex1
								{
									OFFSET 0.750000 0.000000 0.000000
									CHANNELS 3 Zrotation Yrotation Xrotation
									End Site
									{
										OFFSET 0.000000 0.000000 0.000000
									}
								}
							}
						}
					}
				}
				JOINT RightShoulder
				{
					OFFSET 0.000000 0.000000 0.000000
					CHANNELS 3 Zrotation Yrotation Xrotation
					JOINT RightArm
					{
						OFFSET -2.700000 1.550000 -0.730000
						CHANNELS 3 Zrotation Yrotation Xrotation
						JOINT RightForeArm
						{
							OFFSET -5.450000 0.000000 0.000000
							CHANNELS 3 Zrotation Yrotation Xrotation
							JOINT RightHand
							{
								OFFSET -3.450000 0.000000 0.000000
								CHANNELS 3 Zrotation Yrotation Xrotation
								JOINT RightHandIndex1
								{
									OFFSET -0.750000 0.000000 0.000000
									CHANNELS 3 Zrotation Yrotation Xrotation
									End Site
									{
										OFFSET 0.000000 0.000000 0.000000
									}
								}
							}
						}
					}
				}
			}
		}
	}
}
MOTION
Frames: 8
Frame Time: 0.016667
1.539600 17.556750 -5.397780 -9.400950 23.273536 -2.549620 -15.110944 12.904221 2.207224 1.795680 -1.398643 -13.151775 1.507809 4.022440 18.698554 -0.854152 4.055105 3.433780 0.332420 -0.101080 0.263530 18.398923 -10.622496 3.981290 -3.831685 6.873157 -38.800397 7.849717 -7.642668 30.288298 -0.081600 -4.476603 2.863524 0.199040 0.552360 0.325040 -4.401416 -0.216592 -7.465921 15.744267 -0.523773 9.390445 1.109062 -0.763976 7.256432 2.402967 8.671063 -10.604087 14.563494 -10.138826 25.092908 -8.105050 -2.389140 -0.889570 -14.552572 -19.441892 5.109350 -12.030854 -16.649747 6.490090 -135.302871 -64.633807 110.764321 -4.144589 3.230226 0.279350 0.543870 -0.360130 0.224240 9.459813 12.421731 5.645675 31.749676 16.950800 5.534462 117.939553 59.446673 73.439985 1.994268 -1.735379 -0.358920 0.229190 0.061650 -0.277030 
1.554340 17.505960 -5.362020 -8.868642 22.706344 -1.793059 -15.104536 12.862912 2.226021 0.992136 -1.235402 -12.172044 1.633347 3.859457 17.544730 -0.902107 4.069359 3.478717 0.287050 -0.149970 0.211780 18.410987 -10.701382 3.841352 -3.909027 6.262999 -37.696887 8.089333 -6.478054 24.588949 0.107916 -3.745125 3.143606 0.219220 0.659680 0.328920 -4.406354 -0.054050 -7.296211 15.013958 -0.389674 7.454410 1.076110 -1.070439 7.820015 2.431529 8.532179 -10.266843 14.458779 -9.396861 23.981525 -8.741860 -1.919960 0.996430 -14.175081 -18.803578 4.829299 -11.108988 -16.941051 7.408172 -136.903376 -64.384726 113.404617 -4.241404 3.250390 0.215980 0.637220 -0.447500 0.232530 9.188392 11.803064 5.370842 32.647066 18.028372 6.176978 120.108492 62.141544 79.424086 1.946110 -1.533663 -0.409090 0.264980 0.104950 -0.268930 
1.555900 17.408680 -5.284960 -7.539280 22.217196 -0.683001 -15.181342 12.884599 2.276683 0.154080 -0.961106 -10.406388 0.807969 3.986580 16.041097 -0.976929 4.269231 3.463110 0.233780 -0.220630 0.154320 18.355383 -10.677770 3.580274 -4.163957 5.090212 -35.468156 6.960130 -4.446842 15.196837 0.330204 -2.771169 3.515426 0.254250 0.808380 0.351200 -4.155854 -0.235918 -7.036133 11.721251 -0.360599 4.600881 2.452557 -1.701534 8.620168 2.283833 8.405654 -9.640500 14.239506 -8.111775 22.959082 -8.991650 -1.251370 2.377530 -12.743406 -17.412530 3.972043 -10.716060 -18.461167 8.653031 -138.398197 -65.309055 117.275358 -4.367713 3.230143 0.161280 0.759110 -0.556390 0.231310 8.501369 10.359562 4.951939 33.609953 18.791478 7.500882 122.385371 63.513208 84.547127 1.809835 -1.427020 -0.487550 0.325580 0.186510 -0.272100 
1.564840 17.307140 -5.243160 -6.528949 23.272111 0.055846 -15.265039 12.876487 2.271440 -0.202394 -0.627632 -8.284684 0.241230 4.054310 14.371919 -1.007149 4.420412 3.442954 0.246230 -0.205800 0.166220 18.312878 -10.490310 3.507050 -5.656185 4.385769 -35.190288 6.361308 -3.402611 9.354084 0.394807 -2.472402 3.619802 0.309550 0.869370 0.375400 -3.941947 -0.534428 -6.923370 9.074371 -1.223950 2.765620 3.310572 -2.937341 8.905417 2.372693 8.820216 -9.058471 14.934454 -7.222020 22.412698 -9.764040 -0.195810 2.767030 -11.484156 -16.667818 3.136434 -8.641907 -20.021443 9.257303 -138.750766 -66.820482 120.409073 -4.436409 3.213218 0.118020 0.836010 -0.601860 0.234260 7.456962 9.084071 4.378712 34.088278 20.270816 8.177158 125.365772 66.182219 92.542923 1.656587 -1.197811 -0.517140 0.347170 0.202210 -0.282730 
1.559880 17.218060 -5.217380 -5.794341 22.181292 0.194703 -15.329435 12.917860 2.285577 -0.343180 -0.341833 -6.772059 -0.460570 4.330240 14.152076 -0.924994 4.559434 3.390284 0.253390 -0.198090 0.175370 18.268503 -10.327189 3.513537 -5.572701 4.261318 -34.790662 5.377603 -2.676134 5.659074 0.400368 -2.290862 3.688699 0.293970 0.846040 0.400150 -3.724885 -0.846315 -6.935655 6.841165 -1.393670 2.432031 4.826445 -3.201457 8.603995 2.215695 9.073185 -8.955789 15.269082 -6.449645 23.452451 -9.973200 0.844490 3.257890 -11.235794 -16.927710 2.896315 -5.885451 -20.617566 9.477756 -134.905956 -66.654797 115.892796 -4.445811 3.250663 0.108860 0.834670 -0.583690 0.233940 7.735876 9.262066 4.178548 31.443714 19.900402 7.379894 127.862129 67.300099 98.338786 1.587307 -1.137215 -0.484550 0.300960 0.187510 -0.280420 
1.546110 17.137990 -5.190040 -5.115699 20.201851 0.667458 -15.363407 12.911969 2.303564 -0.529985 -0.150135 -6.056418 -1.442751 4.673587 14.195185 -0.786761 4.598707 3.389219 0.280880 -0.119870 0.170250 18.253007 -10.211843 3.546514 -5.092222 4.396077 -35.039283 5.093574 -2.354521 4.310071 0.403098 -2.213614 3.748755 0.303780 0.826170 0.382970 -3.588296 -1.004265 -6.945052 5.005923 -1.306203 2.098928 6.340475 -3.175282 8.170568 1.854658 8.927872 -8.892393 14.978068 -5.467615 23.977223 -9.867820 1.815720 4.219060 -10.782413 -17.127572 2.913526 -2.641411 -20.559786 9.606658 -129.412602 -65.842880 108.547763 -4.438686 3.315633 0.044270 0.831140 -0.567720 0.273690 8.120516 9.864093 3.831750 28.533016 20.068978 6.455033 133.126387 69.215911 109.306217 1.461310 -1.169554 -0.431630 0.269250 0.115320 -0.237330 
1.536860 17.076270 -5.166980 -4.374366 19.622058 0.815307 -15.414888 13.010472 2.347050 -0.717476 -0.090511 -5.915537 -2.146498 5.056685 15.252043 -0.725648 4.717981 3.328962 0.287510 -0.100260 0.173450 18.194481 -10.148778 3.511245 -5.237310 4.212937 -34.579791 5.364602 -2.390446 4.245007 0.377535 -2.191448 3.760655 0.289040 0.792160 0.373960 -3.407511 -1.318551 -6.959065 3.117367 -1.690498 2.234763 7.585181 -3.484832 7.810483 1.527535 8.835109 -8.986390 14.704508 -4.759104 25.165997 -9.322540 2.203900 3.529080 -10.582323 -17.338257 3.255645 0.005785 -19.710468 10.132374 -129.017990 -61.917394 104.007651 -4.412775 3.458824 0.073040 0.793020 -0.528430 0.272270 8.670891 10.288918 3.490374 25.928985 19.894891 5.994499 134.553286 69.473732 112.454982 1.448757 -1.176979 -0.412510 0.267450 0.103940 -0.232750 
1.535500 17.029950 -5.141480 -3.916582 19.697119 1.253659 -15.419871 13.075372 2.388974 -1.194261 -0.216445 -6.719467 -2.269747 5.282355 16.879581 -0.686232 4.800561 3.279347 0.266060 -0.135650 0.140310 18.171664 -10.169431 3.491990 -5.513084 4.146874 -34.648653 5.835543 -2.684686 5.807053 0.375178 -2.235638 3.734715 0.251350 0.787690 0.386380 -3.374075 -1.443640 -6.984344 2.638896 -2.121276 2.324089 7.772101 -3.723098 7.142420 1.263017 8.331122 -9.279138 13.751481 -4.120635 25.500344 -8.390730 1.841350 3.934580 -10.185202 -17.742754 4.054526 2.052696 -18.181905 10.971252 -128.809508 -55.872326 96.889129 -4.397931 3.671764 0.082230 0.773090 -0.526880 0.266780 8.666840 11.123557 3.116819 22.146264 19.493462 5.179844 133.805435 69.910870 113.026700 1.465702 -1.129208 -0.394410 0.238590 0.122960 -0.221750 
